<mxfile host="65bd71144e">
    <diagram id="WHtTDJSVfnH05FcJVf9x" name="overview">
        <mxGraphModel dx="1567" dy="795" grid="0" gridSize="10" guides="1" tooltips="1" connect="1" arrows="1" fold="1" page="0" pageScale="1" pageWidth="850" pageHeight="1100" math="0" shadow="0">
            <root>
                <mxCell id="0"/>
                <mxCell id="1" parent="0"/>
                <mxCell id="rMj7Xm5Ce88Mk3VK5p0u-22" value="" style="rounded=0;whiteSpace=wrap;html=1;sketch=1;dashed=1;strokeColor=#CCCCCC;fillColor=none;" parent="1" vertex="1">
                    <mxGeometry x="-139" y="98" width="556" height="688" as="geometry"/>
                </mxCell>
                <mxCell id="rMj7Xm5Ce88Mk3VK5p0u-16" value="" style="rounded=0;whiteSpace=wrap;html=1;sketch=1;dashed=1;strokeColor=#CCCCCC;fillColor=none;" parent="1" vertex="1">
                    <mxGeometry x="159" y="147" width="222" height="628" as="geometry"/>
                </mxCell>
                <mxCell id="rMj7Xm5Ce88Mk3VK5p0u-1" value="" style="rounded=0;whiteSpace=wrap;html=1;sketch=1;dashed=1;strokeColor=#CCCCCC;fillColor=none;" parent="1" vertex="1">
                    <mxGeometry x="723.01" y="97" width="197" height="690" as="geometry"/>
                </mxCell>
                <mxCell id="rMj7Xm5Ce88Mk3VK5p0u-2" style="edgeStyle=none;html=1;exitX=1;exitY=0.75;exitDx=0;exitDy=0;" parent="1" source="17" target="rMj7Xm5Ce88Mk3VK5p0u-4" edge="1">
                    <mxGeometry relative="1" as="geometry">
                        <mxPoint x="407.999112850026" y="332" as="sourcePoint"/>
                    </mxGeometry>
                </mxCell>
                <mxCell id="rMj7Xm5Ce88Mk3VK5p0u-4" value="Bucket" style="outlineConnect=0;fontColor=#232F3E;gradientColor=none;fillColor=#3F8624;strokeColor=none;dashed=0;verticalLabelPosition=bottom;verticalAlign=top;align=center;html=1;fontSize=12;fontStyle=0;aspect=fixed;pointerEvents=1;shape=mxgraph.aws4.bucket;" parent="1" vertex="1">
                    <mxGeometry x="784.01" y="605" width="75" height="78" as="geometry"/>
                </mxCell>
                <mxCell id="rMj7Xm5Ce88Mk3VK5p0u-7" style="edgeStyle=none;html=1;" parent="1" source="rMj7Xm5Ce88Mk3VK5p0u-9" target="rMj7Xm5Ce88Mk3VK5p0u-14" edge="1">
                    <mxGeometry relative="1" as="geometry">
                        <mxPoint x="-163" y="313" as="sourcePoint"/>
                        <mxPoint x="160" y="332" as="targetPoint"/>
                    </mxGeometry>
                </mxCell>
                <mxCell id="rMj7Xm5Ce88Mk3VK5p0u-8" value="" style="group" parent="1" vertex="1" connectable="0">
                    <mxGeometry x="-65" y="285" width="115" height="94" as="geometry"/>
                </mxCell>
                <mxCell id="rMj7Xm5Ce88Mk3VK5p0u-9" value="" style="rounded=0;whiteSpace=wrap;html=1;sketch=1;curveFitting=1;jiggle=2;" parent="rMj7Xm5Ce88Mk3VK5p0u-8" vertex="1">
                    <mxGeometry width="115" height="94" as="geometry"/>
                </mxCell>
                <mxCell id="rMj7Xm5Ce88Mk3VK5p0u-10" value="" style="shape=image;verticalLabelPosition=bottom;labelBackgroundColor=default;verticalAlign=top;aspect=fixed;imageAspect=0;image=https://seeklogo.com/images/P/prometheus-monitoring-system-logo-3C07B67C00-seeklogo.com.png;" parent="rMj7Xm5Ce88Mk3VK5p0u-8" vertex="1">
                    <mxGeometry x="16" y="9" width="86.05" height="74" as="geometry"/>
                </mxCell>
                <mxCell id="rMj7Xm5Ce88Mk3VK5p0u-12" value="" style="sketch=0;html=1;dashed=0;whitespace=wrap;fillColor=#2875E2;strokeColor=#ffffff;points=[[0.005,0.63,0],[0.1,0.2,0],[0.9,0.2,0],[0.5,0,0],[0.995,0.63,0],[0.72,0.99,0],[0.5,1,0],[0.28,0.99,0]];verticalLabelPosition=bottom;align=center;verticalAlign=top;shape=mxgraph.kubernetes.icon;prIcon=pod" parent="1" vertex="1">
                    <mxGeometry x="-86" y="267" width="39" height="38" as="geometry"/>
                </mxCell>
                <mxCell id="20" value="WRITE" style="edgeStyle=none;html=1;" edge="1" parent="1" source="rMj7Xm5Ce88Mk3VK5p0u-14" target="15">
                    <mxGeometry relative="1" as="geometry"/>
                </mxCell>
                <mxCell id="rMj7Xm5Ce88Mk3VK5p0u-14" value="" style="rounded=0;whiteSpace=wrap;html=1;sketch=1;curveFitting=1;jiggle=2;fillColor=#d5e8d4;strokeColor=#82b366;" parent="1" vertex="1">
                    <mxGeometry x="215" y="283" width="143" height="94" as="geometry"/>
                </mxCell>
                <mxCell id="rMj7Xm5Ce88Mk3VK5p0u-13" value="" style="sketch=0;html=1;dashed=0;whitespace=wrap;fillColor=#2875E2;strokeColor=#ffffff;points=[[0.005,0.63,0],[0.1,0.2,0],[0.9,0.2,0],[0.5,0,0],[0.995,0.63,0],[0.72,0.99,0],[0.5,1,0],[0.28,0.99,0]];verticalLabelPosition=bottom;align=center;verticalAlign=top;shape=mxgraph.kubernetes.icon;prIcon=pod" parent="1" vertex="1">
                    <mxGeometry x="200" y="259" width="39" height="38" as="geometry"/>
                </mxCell>
                <mxCell id="rMj7Xm5Ce88Mk3VK5p0u-18" value="" style="sketch=0;html=1;dashed=0;whitespace=wrap;fillColor=#2875E2;strokeColor=#ffffff;points=[[0.005,0.63,0],[0.1,0.2,0],[0.9,0.2,0],[0.5,0,0],[0.995,0.63,0],[0.72,0.99,0],[0.5,1,0],[0.28,0.99,0]];verticalLabelPosition=bottom;align=center;verticalAlign=top;shape=mxgraph.kubernetes.icon;prIcon=node" parent="1" vertex="1">
                    <mxGeometry x="-155" y="82" width="50" height="48" as="geometry"/>
                </mxCell>
                <mxCell id="rMj7Xm5Ce88Mk3VK5p0u-19" value="" style="rounded=0;whiteSpace=wrap;html=1;sketch=1;dashed=1;strokeColor=#CCCCCC;fillColor=none;" parent="1" vertex="1">
                    <mxGeometry x="-96" y="147" width="197" height="624" as="geometry"/>
                </mxCell>
                <mxCell id="rMj7Xm5Ce88Mk3VK5p0u-21" value="daemonset" style="text;html=1;align=center;verticalAlign=middle;resizable=0;points=[];autosize=1;strokeColor=none;fillColor=none;dashed=1;sketch=1;" parent="1" vertex="1">
                    <mxGeometry x="-52" y="381" width="77" height="26" as="geometry"/>
                </mxCell>
                <mxCell id="rMj7Xm5Ce88Mk3VK5p0u-23" value="&lt;font face=&quot;Architects Daughter&quot;&gt;&lt;span style=&quot;font-size: 22px;&quot;&gt;COLLECTOR&lt;/span&gt;&lt;/font&gt;" style="text;html=1;align=center;verticalAlign=middle;resizable=0;points=[];autosize=1;strokeColor=none;fillColor=none;fontColor=#13A813;fontStyle=3" parent="1" vertex="1">
                    <mxGeometry x="215" y="315.75" width="152" height="38" as="geometry"/>
                </mxCell>
                <mxCell id="rMj7Xm5Ce88Mk3VK5p0u-24" value="&lt;font style=&quot;font-size: 13px;&quot;&gt;ns: default&lt;/font&gt;" style="text;html=1;align=center;verticalAlign=middle;resizable=0;points=[];autosize=1;strokeColor=none;fillColor=none;fontColor=#000000;fontStyle=0;fontFamily=Courier New;" parent="1" vertex="1">
                    <mxGeometry x="-11" y="735" width="104" height="28" as="geometry"/>
                </mxCell>
                <mxCell id="rMj7Xm5Ce88Mk3VK5p0u-25" value="&lt;font style=&quot;font-size: 13px;&quot;&gt;ns: cirrus&lt;/font&gt;" style="text;html=1;align=center;verticalAlign=middle;resizable=0;points=[];autosize=1;strokeColor=none;fillColor=none;fontColor=#000000;fontStyle=0;fontFamily=Courier New;" parent="1" vertex="1">
                    <mxGeometry x="284" y="735" width="96" height="28" as="geometry"/>
                </mxCell>
                <mxCell id="rMj7Xm5Ce88Mk3VK5p0u-26" value="&lt;font style=&quot;font-size: 13px;&quot;&gt;CLOUDZERO AWS&lt;/font&gt;" style="text;html=1;align=center;verticalAlign=middle;resizable=0;points=[];autosize=1;strokeColor=none;fillColor=none;fontColor=#000000;fontStyle=0;fontFamily=Courier New;" parent="1" vertex="1">
                    <mxGeometry x="797.01" y="752" width="119" height="28" as="geometry"/>
                </mxCell>
                <mxCell id="8" value="" style="group" parent="1" vertex="1" connectable="0">
                    <mxGeometry x="159.995" y="283" width="26.75" height="92.505" as="geometry"/>
                </mxCell>
                <mxCell id="9" value="" style="rounded=0;whiteSpace=wrap;html=1;rotation=-90;fontFamily=Architects Daughter;fontSource=https%3A%2F%2Ffonts.googleapis.com%2Fcss%3Ffamily%3DArchitects%2BDaughter;strokeColor=none;" parent="8" vertex="1">
                    <mxGeometry x="-32.875" y="32.879999999999995" width="92.5" height="26.75" as="geometry"/>
                </mxCell>
                <mxCell id="10" value="service" style="rounded=0;whiteSpace=wrap;html=1;sketch=1;curveFitting=1;jiggle=2;fillColor=#d5e8d4;strokeColor=#82b366;rotation=-90;fontFamily=Architects Daughter;fontSource=https%3A%2F%2Ffonts.googleapis.com%2Fcss%3Ffamily%3DArchitects%2BDaughter;" parent="8" vertex="1">
                    <mxGeometry x="-33.004999999999995" y="33.25" width="92.5" height="26" as="geometry"/>
                </mxCell>
                <mxCell id="14" value="&lt;font style=&quot;font-size: 13px;&quot;&gt;k8s: node&lt;/font&gt;" style="text;html=1;align=center;verticalAlign=middle;resizable=0;points=[];autosize=1;strokeColor=none;fillColor=none;fontColor=#000000;fontStyle=0;fontFamily=Courier New;" parent="1" vertex="1">
                    <mxGeometry x="-105" y="98" width="88" height="28" as="geometry"/>
                </mxCell>
                <mxCell id="15" value="" style="sketch=0;pointerEvents=1;shadow=0;dashed=0;html=1;strokeColor=none;labelPosition=center;verticalLabelPosition=bottom;verticalAlign=top;outlineConnect=0;align=center;shape=mxgraph.office.concepts.folder;fillColor=#2072B8;" vertex="1" parent="1">
                    <mxGeometry x="224" y="439" width="124" height="80" as="geometry"/>
                </mxCell>
                <mxCell id="16" value="&lt;font face=&quot;Architects Daughter&quot;&gt;&lt;span style=&quot;font-size: 22px;&quot;&gt;DATA&lt;/span&gt;&lt;/font&gt;" style="text;html=1;align=center;verticalAlign=middle;resizable=0;points=[];autosize=1;strokeColor=none;fillColor=none;fontColor=#13A813;fontStyle=3" vertex="1" parent="1">
                    <mxGeometry x="245" y="471" width="74" height="38" as="geometry"/>
                </mxCell>
                <mxCell id="19" value="READ" style="edgeStyle=none;html=1;" edge="1" parent="1" source="17" target="15">
                    <mxGeometry relative="1" as="geometry"/>
                </mxCell>
                <mxCell id="23" style="edgeStyle=orthogonalEdgeStyle;html=1;" edge="1" parent="1" source="17" target="21">
                    <mxGeometry relative="1" as="geometry">
                        <Array as="points">
                            <mxPoint x="524" y="622"/>
                            <mxPoint x="524" y="416"/>
                        </Array>
                    </mxGeometry>
                </mxCell>
                <mxCell id="25" value="POST" style="edgeLabel;html=1;align=center;verticalAlign=middle;resizable=0;points=[];" vertex="1" connectable="0" parent="23">
                    <mxGeometry x="-0.1983" relative="1" as="geometry">
                        <mxPoint x="-59" y="57" as="offset"/>
                    </mxGeometry>
                </mxCell>
                <mxCell id="17" value="" style="rounded=0;whiteSpace=wrap;html=1;sketch=1;curveFitting=1;jiggle=2;fillColor=#d5e8d4;strokeColor=#82b366;" vertex="1" parent="1">
                    <mxGeometry x="215" y="575" width="143" height="94" as="geometry"/>
                </mxCell>
                <mxCell id="18" value="&lt;font face=&quot;Architects Daughter&quot;&gt;&lt;span style=&quot;font-size: 22px;&quot;&gt;SHIPPER&lt;/span&gt;&lt;/font&gt;" style="text;html=1;align=center;verticalAlign=middle;resizable=0;points=[];autosize=1;strokeColor=none;fillColor=none;fontColor=#13A813;fontStyle=3" vertex="1" parent="1">
                    <mxGeometry x="229" y="607" width="106" height="38" as="geometry"/>
                </mxCell>
                <mxCell id="24" value="GET PUT URL" style="edgeStyle=orthogonalEdgeStyle;html=1;" edge="1" parent="1" source="21" target="rMj7Xm5Ce88Mk3VK5p0u-4">
                    <mxGeometry x="-0.5352" relative="1" as="geometry">
                        <mxPoint as="offset"/>
                    </mxGeometry>
                </mxCell>
                <mxCell id="21" value="" style="rounded=0;whiteSpace=wrap;html=1;sketch=1;curveFitting=1;jiggle=2;fillColor=#d5e8d4;strokeColor=#82b366;" vertex="1" parent="1">
                    <mxGeometry x="750.01" y="369" width="143" height="94" as="geometry"/>
                </mxCell>
                <mxCell id="22" value="&lt;font face=&quot;Architects Daughter&quot;&gt;&lt;span style=&quot;font-size: 22px;&quot;&gt;UPLOAD&lt;br&gt;API&lt;br&gt;&lt;/span&gt;&lt;/font&gt;" style="text;html=1;align=center;verticalAlign=middle;resizable=0;points=[];autosize=1;strokeColor=none;fillColor=none;fontColor=#13A813;fontStyle=3" vertex="1" parent="1">
                    <mxGeometry x="768" y="384" width="103" height="65" as="geometry"/>
                </mxCell>
                <mxCell id="26" value="PUT" style="edgeLabel;html=1;align=center;verticalAlign=middle;resizable=0;points=[];" vertex="1" connectable="0" parent="1">
                    <mxGeometry x="482.9999999999998" y="629.0000000000005" as="geometry">
                        <mxPoint x="-17" y="31" as="offset"/>
                    </mxGeometry>
                </mxCell>
            </root>
        </mxGraphModel>
    </diagram>
</mxfile>